<svg width="160" height="160" viewBox="0 0 160 160" xmlns="http://www.w3.org/2000/svg" role="img" aria-label="Schwarzes Schaf Icon">
  <rect width="160" height="160" fill="#f5f5f5"/>
  <g fill="none" stroke="#111111" stroke-linecap="round" stroke-linejoin="round">
    <circle cx="80" cy="80" r="62" stroke-width="6"/>
    <path d="M54 96 C50 81, 59 62, 75 56 C85 52, 97 52, 106 58 C97 66, 92 78, 91 90" stroke-width="5"/>
    <path d="M91 90 C96 89, 103 87, 110 83" stroke-width="5"/>
    <path d="M67 106 C67 117, 65 125, 61 132" stroke-width="5"/>
    <path d="M86 108 C86 119, 88 127, 93 134" stroke-width="5"/>
    <path d="M106 58 C113 54, 122 55, 127 62 C122 66, 115 68, 108 66" stroke-width="4"/>
    <circle cx="98" cy="77" r="2.8" fill="#111111" stroke="none"/>
    <path d="M93 84 C97 86, 102 86, 106 83" stroke-width="3.5"/>
  </g>
</svg>
